<svg width="166" height="40" viewBox="0 0 166 40" fill="none" xmlns="http://www.w3.org/2000/svg">
  <path
    d="M35.9774 2.80469L40.4287 10.4876L35.9774 18.1705H27.075L22.6238 10.4876L27.075 2.80469L35.9774 2.80469Z"
    fill="black"
  />
  <path
    d="M13.7822 2.80469L29.2701 29.512L24.8188 37.1949H15.9164L0.428589 10.4876L4.87981 2.80469L13.7822 2.80469Z"
    fill="black"
  />
  <path
    d="M61.6704 9.22078L67.4537 26.1445H67.6871L73.4704 9.22078H76.8592L69.3815 30H65.7593L58.2816 9.22078H61.6704ZM84.7706 30.3145C83.2351 30.3145 81.9128 29.9865 80.8035 29.3304C79.7009 28.6675 78.8486 27.7374 78.2466 26.5402C77.6514 25.3362 77.3538 23.9259 77.3538 22.3093C77.3538 20.7129 77.6514 19.306 78.2466 18.0885C78.8486 16.8709 79.6874 15.9206 80.7629 15.2374C81.8451 14.5542 83.11 14.2127 84.5575 14.2127C85.4368 14.2127 86.2891 14.3581 87.1143 14.6489C87.9395 14.9398 88.6802 15.3964 89.3363 16.0187C89.9924 16.641 90.5099 17.4493 90.8887 18.4436C91.2675 19.4311 91.4569 20.6318 91.4569 22.0455V23.1209H79.0685V20.8482H88.4841C88.4841 20.0501 88.3217 19.3432 87.997 18.7277C87.6724 18.1054 87.2158 17.615 86.6273 17.2565C86.0456 16.898 85.3624 16.7187 84.5778 16.7187C83.7255 16.7187 82.9815 16.9284 82.3457 17.3478C81.7166 17.7604 81.2296 18.3015 80.8846 18.9712C80.5464 19.6341 80.3773 20.3544 80.3773 21.1323V22.9079C80.3773 23.9495 80.5599 24.8356 80.9252 25.5662C81.2972 26.2967 81.8147 26.8547 82.4776 27.2403C83.1404 27.619 83.9149 27.8084 84.801 27.8084C85.376 27.8084 85.9002 27.7273 86.3737 27.5649C86.8472 27.3958 87.2564 27.1456 87.6013 26.8141C87.9463 26.4827 88.2101 26.0735 88.3927 25.5864L91.2641 26.1039C91.0341 26.9494 90.6215 27.6901 90.0263 28.3259C89.4378 28.955 88.6971 29.4453 87.8043 29.7971C86.9182 30.142 85.9069 30.3145 84.7706 30.3145ZM97.8565 20.7468V30H94.8228V14.4156H97.7348V16.9521H97.9275C98.286 16.1269 98.8475 15.464 99.6118 14.9635C100.383 14.4629 101.354 14.2127 102.524 14.2127C103.586 14.2127 104.516 14.4359 105.314 14.8823C106.112 15.322 106.731 15.9781 107.171 16.8506C107.61 17.7232 107.83 18.8021 107.83 20.0873V30H104.796V20.4525C104.796 19.3229 104.502 18.4402 103.914 17.8044C103.325 17.1618 102.517 16.8405 101.489 16.8405C100.785 16.8405 100.16 16.9927 99.6118 17.2971C99.0707 17.6015 98.6412 18.0479 98.3232 18.6364C98.0121 19.2181 97.8565 19.9215 97.8565 20.7468ZM119.173 14.4156V16.8506H110.661V14.4156H119.173ZM112.944 10.6818H115.977V25.4241C115.977 26.0126 116.065 26.4556 116.241 26.7532C116.417 27.0441 116.644 27.2436 116.921 27.3519C117.205 27.4533 117.513 27.5041 117.844 27.5041C118.088 27.5041 118.301 27.4871 118.484 27.4533C118.666 27.4195 118.808 27.3925 118.91 27.3722L119.458 29.8782C119.282 29.9459 119.031 30.0135 118.707 30.0812C118.382 30.1556 117.976 30.1962 117.489 30.2029C116.691 30.2165 115.947 30.0744 115.257 29.7768C114.567 29.4792 114.009 29.0192 113.583 28.3969C113.157 27.7746 112.944 26.9934 112.944 26.0532V10.6818ZM132.401 23.5369V14.4156H135.445V30H132.462V27.3011H132.3C131.942 28.1331 131.367 28.8264 130.575 29.3811C129.791 29.929 128.813 30.2029 127.643 30.2029C126.642 30.2029 125.756 29.9831 124.985 29.5434C124.22 29.097 123.618 28.4375 123.179 27.5649C122.746 26.6924 122.529 25.6135 122.529 24.3283V14.4156H125.563V23.9631C125.563 25.025 125.857 25.8705 126.446 26.4996C127.034 27.1287 127.799 27.4432 128.739 27.4432C129.307 27.4432 129.872 27.3011 130.433 27.017C131.001 26.733 131.471 26.3034 131.843 25.7285C132.222 25.1535 132.408 24.423 132.401 23.5369ZM139.521 30V14.4156H142.454V16.8912H142.616C142.9 16.0525 143.401 15.393 144.118 14.9127C144.841 14.4257 145.66 14.1822 146.573 14.1822C146.762 14.1822 146.986 14.189 147.243 14.2025C147.506 14.216 147.713 14.233 147.862 14.2532V17.155C147.74 17.1212 147.523 17.084 147.212 17.0434C146.901 16.9961 146.59 16.9724 146.279 16.9724C145.562 16.9724 144.923 17.1246 144.361 17.429C143.807 17.7266 143.367 18.1426 143.042 18.6769C142.718 19.2045 142.555 19.8065 142.555 20.483V30H139.521ZM156.646 30.3145C155.11 30.3145 153.788 29.9865 152.678 29.3304C151.576 28.6675 150.724 27.7374 150.122 26.5402C149.526 25.3362 149.229 23.9259 149.229 22.3093C149.229 20.7129 149.526 19.306 150.122 18.0885C150.724 16.8709 151.562 15.9206 152.638 15.2374C153.72 14.5542 154.985 14.2127 156.433 14.2127C157.312 14.2127 158.164 14.3581 158.989 14.6489C159.815 14.9398 160.555 15.3964 161.211 16.0187C161.867 16.641 162.385 17.4493 162.764 18.4436C163.142 19.4311 163.332 20.6318 163.332 22.0455V23.1209H150.943V20.8482H160.359C160.359 20.0501 160.197 19.3432 159.872 18.7277C159.547 18.1054 159.091 17.615 158.502 17.2565C157.921 16.898 157.237 16.7187 156.453 16.7187C155.601 16.7187 154.856 16.9284 154.221 17.3478C153.592 17.7604 153.105 18.3015 152.76 18.9712C152.421 19.6341 152.252 20.3544 152.252 21.1323V22.9079C152.252 23.9495 152.435 24.8356 152.8 25.5662C153.172 26.2967 153.69 26.8547 154.353 27.2403C155.015 27.619 155.79 27.8084 156.676 27.8084C157.251 27.8084 157.775 27.7273 158.249 27.5649C158.722 27.3958 159.131 27.1456 159.476 26.8141C159.821 26.4827 160.085 26.0735 160.268 25.5864L163.139 26.1039C162.909 26.9494 162.497 27.6901 161.901 28.3259C161.313 28.955 160.572 29.4453 159.679 29.7971C158.793 30.142 157.782 30.3145 156.646 30.3145Z"
    fill="black"
  />
</svg>
